HIERARCHY
ROOT Hips
{
	OFFSET -0.001795 -0.223333 0.028219
	CHANNELS 6 Xposition Yposition Zposition Zrotation Yrotation Xrotation 
	JOINT LeftUpLeg
	{
		OFFSET 0.069520 -0.091406 -0.006815
		CHANNELS 3 Zrotation Yrotation Xrotation
		JOINT LeftLeg
		{
			OFFSET 0.034277 -0.375199 -0.004496
			CHANNELS 3 Zrotation Yrotation Xrotation
			JOINT LeftFoot
			{
				OFFSET -0.013596 -0.397961 -0.043693
				CHANNELS 3 Zrotation Yrotation Xrotation
				JOINT LeftToe
				{
					OFFSET 0.026358 -0.055791 0.119288
					CHANNELS 3 Zrotation Yrotation Xrotation
					End Site
					{
						OFFSET 0.000000 0.000000 0.000000
					}
				}
			}
		}
	}
	JOINT RightUpLeg
	{
		OFFSET -0.067670 -0.090522 -0.004320
		CHANNELS 3 Zrotation Yrotation Xrotation
		JOINT RightLeg
		{
			OFFSET -0.038290 -0.382569 -0.008850
			CHANNELS 3 Zrotation Yrotation Xrotation
			JOINT RightFoot
			{
				OFFSET 0.015774 -0.398415 -0.042312
				CHANNELS 3 Zrotation Yrotation Xrotation
				JOINT RightToe
				{
					OFFSET -0.025372 -0.048144 0.123348
					CHANNELS 3 Zrotation Yrotation Xrotation
					End Site
					{
						OFFSET 0.000000 0.000000 0.000000
					}
				}
			}
		}
	}
	JOINT Spine
	{
		OFFSET -0.002533 0.108963 -0.026696
		CHANNELS 3 Zrotation Yrotation Xrotation
		JOINT Spine1
		{
			OFFSET 0.005487 0.135180 0.001092
			CHANNELS 3 Zrotation Yrotation Xrotation
			JOINT Spine2
			{
				OFFSET 0.001457 0.052922 0.025425
				CHANNELS 3 Zrotation Yrotation Xrotation
				JOINT Neck
				{
					OFFSET -0.002778 0.213870 -0.042857
					CHANNELS 3 Zrotation Yrotation Xrotation
					JOINT Head
					{
						OFFSET 0.005152 0.064970 0.051349
						CHANNELS 3 Zrotation Yrotation Xrotation
						End Site
						{
							OFFSET 0.000000 0.000000 0.000000
						}
					}
				}
				JOINT LeftShoulder
				{
					OFFSET 0.078845 0.121749 -0.034090
					CHANNELS 3 Zrotation Yrotation Xrotation
					JOINT LeftArm
					{
						OFFSET 0.090977 0.030469 -0.008868
						CHANNELS 3 Zrotation Yrotation Xrotation
						JOINT LeftForeArm
						{
							OFFSET 0.259612 -0.012772 -0.027456
							CHANNELS 3 Zrotation Yrotation Xrotation
							JOINT LeftHand
							{
								OFFSET 0.249234 0.008986 -0.001171
								CHANNELS 3 Zrotation Yrotation Xrotation
								End Site
								{
									OFFSET 0.000000 0.000000 0.000000
								}
							}
						}
					}
				}
				JOINT RightShoulder
				{
					OFFSET -0.081759 0.118833 -0.038615
					CHANNELS 3 Zrotation Yrotation Xrotation
					JOINT RightArm
					{
						OFFSET -0.096012 0.032551 -0.009143
						CHANNELS 3 Zrotation Yrotation Xrotation
						JOINT RightForeArm
						{
							OFFSET -0.253742 -0.013329 -0.021401
							CHANNELS 3 Zrotation Yrotation Xrotation
							JOINT RightHand
							{
								OFFSET -0.255298 0.007772 -0.005559
								CHANNELS 3 Zrotation Yrotation Xrotation
								End Site
								{
									OFFSET 0.000000 0.000000 0.000000
								}
							}
						}
					}
				}
			}
		}
	}
}
MOTION
Frames: 9
Frame Time: 0.050000
0.000000 0.966240 0.000000 -0.815716 -0.923829 -3.191451 0.264085 0.249186 2.783561 1.503030 -0.346242 3.778947 -3.518325 -1.470096 11.641020 0.000000 0.000000 0.000000 1.706048 -0.334807 2.661229 -2.182675 0.396435 2.767457 3.168450 0.776989 12.473209 0.000000 0.000000 0.000000 1.571490 -0.452690 8.389369 -1.497382 0.635469 14.385342 -0.141003 1.042624 -19.814732 0.587349 -1.027956 5.738547 0.000000 0.000000 0.000000 -33.212824 -7.074771 -0.235738 -39.804287 5.056511 -4.101940 -17.910045 -25.989681 4.818213 0.000000 0.000000 0.000000 31.264217 5.594160 -0.241171 44.341175 -4.174045 -3.538881 16.268962 26.249110 4.085069 0.000000 0.000000 0.000000 
0.000158 0.965169 0.001377 -0.847583 0.096802 -3.094684 0.249231 0.249493 2.825544 1.916777 -0.394683 3.545328 -4.193810 -2.689028 11.193098 0.000000 0.000000 0.000000 1.632890 -0.344563 2.764598 -2.009910 0.356812 2.446832 2.896269 0.275498 12.800404 0.000000 0.000000 0.000000 0.858074 -0.382989 7.943850 -1.367332 0.438438 15.716267 0.950535 0.576295 -20.736836 -0.196671 -0.276634 4.465072 0.000000 0.000000 0.000000 -33.559872 -6.809577 -0.225594 -40.464524 5.204647 -4.226974 -17.061203 -26.189120 4.667492 0.000000 0.000000 0.000000 30.378399 5.916324 -0.251851 44.984950 -4.797770 -3.672532 16.670890 26.139493 4.113153 0.000000 0.000000 0.000000 
0.000452 0.964974 0.002564 -0.643625 0.547476 -3.205842 -0.274642 0.275528 2.946154 2.406404 -0.480657 3.840164 -4.190609 -2.919996 10.583251 0.000000 0.000000 0.000000 1.715086 -0.327495 2.590879 -1.975698 0.391563 3.118688 1.861154 -1.543586 12.560830 0.000000 0.000000 0.000000 1.030238 -0.401257 8.074131 -0.993236 0.194346 13.551162 -0.142496 0.120568 -19.096616 -0.474555 -0.173099 5.478585 0.000000 0.000000 0.000000 -33.180580 -6.577849 -0.356550 -40.192075 5.769558 -4.468561 -18.840047 -25.460799 4.950190 0.000000 0.000000 0.000000 32.091862 6.468199 0.180562 43.823638 -5.441517 -3.944470 15.684392 26.364002 3.990457 0.000000 0.000000 0.000000 
0.000696 0.966258 0.003496 -0.632830 0.838581 -3.233695 -0.495544 0.268976 2.809044 2.696290 -0.522172 3.835235 -4.333793 -2.640719 11.587013 0.000000 0.000000 0.000000 1.740201 -0.263886 2.038626 -1.491184 0.375565 4.075522 1.024337 -3.303897 13.130292 0.000000 0.000000 0.000000 0.320187 -0.353079 8.076797 -1.025836 0.162148 14.704907 0.926436 -0.018606 -20.233607 -0.789222 0.031956 6.390381 0.000000 0.000000 0.000000 -33.386192 -6.452851 -0.288192 -40.344873 7.248954 -4.940078 -19.021335 -26.572323 5.228659 0.000000 0.000000 0.000000 31.644447 7.012349 0.308220 43.771955 -6.385908 -4.118914 15.338016 25.296334 3.714787 0.000000 0.000000 0.000000 
0.001143 0.968121 0.004042 -0.635476 1.421795 -3.616014 -0.775853 0.318119 3.249181 3.113245 -0.560176 3.498369 -4.581009 -2.509565 12.549557 0.000000 0.000000 0.000000 1.923211 -0.246213 1.854584 -1.384984 0.411329 5.102053 0.257457 -4.886446 13.870075 0.000000 0.000000 0.000000 0.540816 -0.383775 8.396083 -1.481277 0.413834 14.607246 1.306204 -0.483305 -20.019576 -1.125652 0.306983 6.714958 0.000000 0.000000 0.000000 -33.409779 -6.205226 -0.266747 -40.347250 8.191994 -5.307828 -19.084012 -26.803774 5.316598 0.000000 0.000000 0.000000 31.513911 6.762051 -0.037710 43.744377 -7.881335 -4.597231 16.416366 24.445013 3.769848 0.000000 0.000000 0.000000 
0.001718 0.971048 0.003783 -0.543086 1.909495 -4.018479 -1.256953 0.330377 3.223421 3.320553 -0.624509 4.035757 -4.258116 -1.465367 13.475181 0.000000 0.000000 0.000000 1.785635 -0.215941 1.649041 -1.132379 0.404078 5.807022 0.366988 -5.210443 15.871321 0.000000 0.000000 0.000000 0.079957 -0.370550 8.807979 -1.319768 0.266695 14.630812 1.264622 -0.664838 -19.753071 -1.001934 0.190278 7.137648 0.000000 0.000000 0.000000 -33.447746 -5.880858 -0.479714 -39.586069 10.494716 -5.927926 -20.233287 -27.297184 5.717712 0.000000 0.000000 0.000000 31.080476 6.591667 -0.114834 43.636682 -9.375066 -5.132621 16.494792 22.551435 3.469465 0.000000 0.000000 0.000000 
0.002739 0.975041 0.001154 -0.315267 2.664154 -4.173880 -1.595374 0.276978 2.598715 3.344048 -0.712484 5.277031 -4.821877 -1.920039 14.222904 0.000000 0.000000 0.000000 1.633161 -0.130630 0.966024 -1.209886 0.471687 7.070499 0.831548 -4.526878 16.784141 0.000000 0.000000 0.000000 -0.304865 -0.384954 9.766142 -1.606293 0.429588 13.461259 1.422758 -0.704076 -17.923929 -0.614838 -0.043403 6.341925 0.000000 0.000000 0.000000 -32.333729 -5.109891 -0.914846 -39.379865 11.159515 -6.221139 -20.683371 -27.436635 5.871037 0.000000 0.000000 0.000000 30.041162 5.485945 -0.627986 43.991867 -10.827641 -5.880990 15.646800 20.675174 3.026861 0.000000 0.000000 0.000000 
0.004499 0.981597 -0.005179 -0.110883 3.194719 -3.732908 -1.571817 0.071963 0.574743 3.085144 -0.845406 7.794329 -5.171570 -2.602551 13.830228 0.000000 0.000000 0.000000 1.673618 0.129060 -1.265556 -1.713746 0.664253 9.304351 1.020673 -4.220164 17.208777 0.000000 0.000000 0.000000 -0.632702 -0.464532 12.286745 -1.604970 0.444903 11.800595 1.318340 -0.890723 -16.718087 -0.177760 -0.340745 5.920560 0.000000 0.000000 0.000000 -30.701036 -4.584366 -1.118206 -38.501289 13.037712 -6.690542 -21.290703 -28.069041 6.187194 0.000000 0.000000 0.000000 28.266355 4.399680 -1.106459 43.420899 -13.469425 -6.808085 15.019596 19.810665 2.806172 0.000000 0.000000 0.000000 
0.007215 0.988752 -0.014953 0.049285 3.615007 -2.821429 -1.865802 -0.259429 -2.631306 3.091795 -1.068592 10.826222 -5.334351 -2.828928 13.806813 0.000000 0.000000 0.000000 1.510769 0.491331 -4.472357 -1.857043 0.820135 12.150245 1.595550 -2.956504 16.631246 0.000000 0.000000 0.000000 -0.489962 -0.616491 15.206909 -1.856356 0.621787 10.248278 1.349129 -1.280436 -15.279682 -0.445806 0.009091 4.376474 0.000000 0.000000 0.000000 -29.090786 -3.700714 -1.409094 -37.956679 14.030140 -6.982926 -20.445428 -29.958126 6.428134 0.000000 0.000000 0.000000 26.041290 3.991304 -1.160935 42.911463 -15.641944 -7.553271 12.918447 18.670565 2.337191 0.000000 0.000000 0.000000 
